<svg xmlns:inkscape="http://www.inkscape.org/namespaces/inkscape" xmlns:sodipodi="http://sodipodi.sourceforge.net/DTD/sodipodi-0.dtd" xmlns:xlink="http://www.w3.org/1999/xlink" xmlns="http://www.w3.org/2000/svg" xmlns:svg="http://www.w3.org/2000/svg" width="1632" height="962" viewBox="0 0 1632 962.00001" version="1.1" id="svg1" xml:space="preserve" sodipodi:docname="template.svg" inkscape:version="1.3.2 (091e20ef0f, 2023-11-25)"><sodipodi:namedview id="namedview1" pagecolor="#505050" bordercolor="#eeeeee" borderopacity="1" inkscape:showpageshadow="0" inkscape:pageopacity="0" inkscape:pagecheckerboard="0" inkscape:deskcolor="#505050" inkscape:document-units="px" inkscape:zoom="0.69993691" inkscape:cx="608.62629" inkscape:cy="397.17866" inkscape:window-width="1920" inkscape:window-height="970" inkscape:window-x="0" inkscape:window-y="0" inkscape:window-maximized="1" inkscape:current-layer="alter-badge" showgrid="false"/><defs id="defs1"><rect x="846.2799" y="926.35876" width="749.82227" height="35.897888" id="rect2"/><rect x="1249.2484" y="304.58231" width="383.56238" height="59.393951" id="rect32"/><rect x="1249.2484" y="363.97617" width="383.56238" height="30.759491" id="rect31"/><rect x="1249.2484" y="273.82288" width="383.56238" height="30.75943" id="rect30"/><rect x="1249.2484" y="214.42889" width="383.56238" height="59.393906" id="rect28"/><rect x="816" y="273.82288" width="383.56238" height="30.75943" id="rect26"/><rect x="816" y="214.42889" width="383.56238" height="59.393967" id="rect25"/><rect x="816" y="363.97626" width="383.56238" height="30.75943" id="rect24"/><rect x="816" y="304.58224" width="383.56238" height="59.393982" id="rect23"/><rect x="1249.2484" y="183.66949" width="383.56238" height="30.759384" id="rect21"/><rect x="1249.2484" y="124.27556" width="383.56238" height="59.393936" id="rect8"/><rect x="816" y="183.66948" width="383.56238" height="30.759415" id="rect44"/><rect x="816" y="124.27553" width="383.56238" height="59.393955" id="rect42"/><rect x="816" y="35.897961" width="383.56241" height="88.377586" id="rect227"/><rect x="0" y="838.07599" width="383.56232" height="88.282669" id="rect222"/><rect x="0" y="660.68549" width="383.56232" height="88.918137" id="rect52"/><rect x="2e-06" y="749.60364" width="383.56232" height="88.377556" id="rect51"/><rect x="168.9324" y="447.17398" width="760.98004" height="170.93898" id="rect5-9"/><clipPath clipPathUnits="userSpaceOnUse" id="clipPath5-4"><g id="use5-3" style="fill:#ffffff"><ellipse style="fill:#ffffff;stroke-width:53.444;stroke-linecap:round;stroke-linejoin:round" id="ellipse1" cx="-406.40869" cy="411.5657" transform="rotate(-90)" rx="179.812" ry="179.8116"/></g></clipPath><rect x="560.44452" y="1209.6196" width="117.45357" height="79.236099" id="rect53-6"/><rect x="560.44452" y="1209.6196" width="117.45357" height="79.236099" id="rect53-7-1-0"/><rect x="55.423538" y="92.378433" width="36.947594" height="303.14267" id="rect56"/><rect x="35.8979" y="35.8979" width="137.33884" height="359.62317" id="rect21-6"/><style id="a-side-style">.a-side {
fill:#ffffff;
 }</style><style id="b-side-style">.b-side {
fill:#000000;
 }</style><clipPath clipPathUnits="userSpaceOnUse" id="clipPath5-4-7"><use x="0" y="0" xlink:href="#g4" id="use5-3-5"/></clipPath></defs><g id="layer1" transform="translate(-3.1561278e-6,-22.920597)"><rect style="fill: #17662c;fill-opacity: 1;" id="backdrop-a-side" width="816" height="961.99988" x="0" y="22.920601"/><g id="g1" clip-path="url(#clipPath5-4)" transform="translate(-3.5657,-167.77858)" style="fill:#ffffff"/><rect style="fill: #cc9900;fill-opacity: 1;" id="backdrop-b-side" width="816" height="961.99988" x="-1632" y="-984.92059" transform="scale(-1)"/><rect style="fill:#ffffff;fill-opacity:1;stroke-width:83.2219;stroke-linecap:round;stroke-linejoin:round" id="description-flowbox" width="749.82227" height="500.8479" x="-1596.1022" y="-949.27936" transform="scale(-1)"/><path style="fill:none;fill-opacity:1;stroke:#ffffff;stroke-width:2.39968;stroke-linecap:butt;stroke-dasharray:none;stroke-opacity:1" d="M 815.99999,984.92046 V 22.920715" id="path39"/><rect style="fill:none;stroke-width:57.1468" id="flavor-flowbox" width="749.82227" height="35.897915" x="846.27991" y="949.27936"/><text xml:space="preserve" id="desc" style="font-style:normal;font-variant:normal;font-weight:normal;font-stretch:normal;font-size:41.3333px;font-family:Cantarell;-inkscape-font-specification:Cantarell;text-align:start;white-space:pre;shape-inside:url(#description-flowbox);display:inline;fill:#000000;fill-opacity:1;stroke:none;stroke-width:14.4;stroke-linecap:round;stroke-linejoin:miter;stroke-dasharray:none;stroke-opacity:1" x="853.9519" y="493.25287"><tspan id="tspan1">The Qitiwi are serval-like cats who were known to be a militaristic society nearly equal to that of the Tharmouzi. They originated as a large unified people across thousands of islands. They are known for their advances in nuclear technology, business-savvinnes and advances to modern warfare. </tspan></text><g id="b-side-text" class="b-side"><text xml:space="preserve" transform="translate(180.12455,22.920618)" id="affiliations-header" style="font-style:normal;font-variant:normal;font-weight:normal;font-stretch:normal;font-size:64px;font-family:Cantarell;-inkscape-font-specification:Cantarell;text-align:start;white-space:pre;shape-inside:url(#rect227);display:inline;fill-opacity:1;stroke:none;stroke-width:14.4;stroke-linecap:round;stroke-linejoin:miter;stroke-dasharray:none;stroke-opacity:1" x="261.95193" y="0"><tspan x="882.25049" y="93.371241" id="tspan4"><tspan style="font-weight:bold;text-align:end;text-anchor:end" id="tspan2">affiliations</tspan></tspan></text><g id="affiliation-5" transform="translate(0,-0.32773247)"><text xml:space="preserve" transform="translate(0,22.920601)" id="affil-desc-5" style="font-style:normal;font-variant:normal;font-weight:normal;font-stretch:normal;font-size:24px;font-family:Cantarell;-inkscape-font-specification:Cantarell;text-align:start;white-space:pre;shape-inside:url(#rect31);display:inline;fill-opacity:1;stroke-width:0;stroke-linecap:round"><tspan x="1249.248" y="385.52886" id="tspan5"> </tspan></text><text xml:space="preserve" transform="translate(0,22.920601)" id="affil-head-5" style="font-style:normal;font-variant:normal;font-weight:normal;font-stretch:normal;font-size:48px;font-family:Cantarell;-inkscape-font-specification:Cantarell;text-align:start;white-space:pre;shape-inside:url(#rect32);display:inline;fill-opacity:1;stroke-width:0;stroke-linecap:round"><tspan x="1249.248" y="347.68663" id="tspan8"><tspan style="font-weight:bold" id="tspan7"> </tspan></tspan></text></g><g id="affiliation-4" transform="translate(0,-0.32773247)"><text xml:space="preserve" id="affil-desc-4" style="font-style:normal;font-variant:normal;font-weight:normal;font-stretch:normal;font-size:24px;font-family:Cantarell;-inkscape-font-specification:Cantarell;text-align:end;white-space:pre;shape-inside:url(#rect24);display:inline;fill-opacity:1;stroke-width:0;stroke-linecap:round" x="366.6478" y="0" transform="translate(0,22.920601)"><tspan x="1075.0025" y="385.52886" id="tspan9"> </tspan></text><text xml:space="preserve" id="affil-head-4" style="font-style:normal;font-variant:normal;font-weight:normal;font-stretch:normal;font-size:48px;font-family:Cantarell;-inkscape-font-specification:Cantarell;text-align:end;white-space:pre;shape-inside:url(#rect23);display:inline;fill-opacity:1;stroke-width:0;stroke-linecap:round" x="350.87997" y="0" transform="translate(0,22.920601)"><tspan x="934.07449" y="347.68663" id="tspan11"><tspan style="font-weight:bold" id="tspan10"> </tspan></tspan></text></g><g id="affiliation-3" transform="translate(0,-0.32773247)"><text xml:space="preserve" transform="translate(0,22.920601)" id="affil-desc-3" style="font-style:normal;font-variant:normal;font-weight:normal;font-stretch:normal;font-size:24px;font-family:Cantarell;-inkscape-font-specification:Cantarell;text-align:start;white-space:pre;shape-inside:url(#rect30);display:inline;fill-opacity:1;stroke-width:0;stroke-linecap:round"><tspan x="1249.248" y="295.37457" id="tspan12"> </tspan></text><text xml:space="preserve" id="affil-head-3" style="font-style:normal;font-variant:normal;font-weight:normal;font-stretch:normal;font-size:48px;font-family:Cantarell;-inkscape-font-specification:Cantarell;text-align:start;white-space:pre;shape-inside:url(#rect28);display:inline;fill-opacity:1;stroke-width:0;stroke-linecap:round" x="-608.06396" y="0" transform="translate(0,22.920601)"><tspan x="1249.248" y="257.53429" id="tspan15"><tspan style="font-weight:bold" id="tspan14"> </tspan></tspan></text></g><g id="affiliation-2" transform="translate(0,-0.32773247)"><text xml:space="preserve" id="affil-desc-2" style="font-style:normal;font-variant:normal;font-weight:normal;font-stretch:normal;font-size:24px;font-family:Cantarell;-inkscape-font-specification:Cantarell;text-align:end;white-space:pre;shape-inside:url(#rect26);display:inline;fill-opacity:1;stroke-width:0;stroke-linecap:round" transform="translate(0,22.920601)"><tspan x="1076.6585" y="295.37457" id="tspan16"> </tspan></text><text xml:space="preserve" transform="translate(0,22.920601)" id="affil-head-2" style="font-style:normal;font-variant:normal;font-weight:normal;font-stretch:normal;font-size:48px;font-family:Cantarell;-inkscape-font-specification:Cantarell;text-align:end;white-space:pre;shape-inside:url(#rect25);display:inline;fill-opacity:1;stroke-width:0;stroke-linecap:round"><tspan x="937.33853" y="257.53429" id="tspan18"><tspan style="font-weight:bold" id="tspan17"> </tspan></tspan></text></g><g id="affiliation-1" transform="translate(0,-0.32773247)"><text xml:space="preserve" transform="translate(0,22.920601)" id="affil-desc-1" style="font-style:normal;font-variant:normal;font-weight:normal;font-stretch:normal;font-size:24px;font-family:Cantarell;-inkscape-font-specification:Cantarell;white-space:pre;shape-inside:url(#rect21);display:inline;fill-opacity:1;stroke-width:0;stroke-linecap:round"><tspan x="1249.248" y="205.22222" id="tspan19"> </tspan></text><text xml:space="preserve" id="affil-head-1" style="font-style:normal;font-variant:normal;font-weight:normal;font-stretch:normal;font-size:48px;font-family:Cantarell;-inkscape-font-specification:Cantarell;white-space:pre;shape-inside:url(#rect8);display:inline;fill-opacity:1;stroke-width:0;stroke-linecap:round" transform="translate(0,22.920601)"><tspan x="1249.248" y="167.37999" id="tspan21"><tspan style="font-weight:bold" id="tspan20"> </tspan></tspan></text></g><g id="affiliation-0" transform="translate(0,-0.32773247)"><text xml:space="preserve" transform="translate(0,22.920618)" id="affil-desc-0" style="font-style:normal;font-variant:normal;font-weight:bold;font-stretch:normal;font-size:24px;font-family:Cantarell;-inkscape-font-specification:'Cantarell Bold';text-align:end;white-space:pre;shape-inside:url(#rect44);display:inline;fill-opacity:1;stroke-width:0;stroke-linecap:round"><tspan x="1074.5945" y="205.22222" id="tspan23"><tspan style="font-weight:normal" id="tspan22">primarily affiliated w/ kingdom of ganzir</tspan></tspan></text><text xml:space="preserve" transform="translate(0,22.920618)" id="affil-head-0" style="font-style:normal;font-variant:normal;font-weight:bold;font-stretch:normal;font-size:48px;font-family:Cantarell;-inkscape-font-specification:'Cantarell Bold';text-align:end;white-space:pre;shape-inside:url(#rect42);display:inline;fill-opacity:1;stroke-width:0;stroke-linecap:round"><tspan x="933.64255" y="167.37999" id="tspan24">various nations</tspan></text></g><text xml:space="preserve" transform="translate(3.1561278e-6,22.920597)" id="flavor-text" style="font-style:normal;font-variant:normal;font-weight:300;font-stretch:normal;font-size:14.6667px;font-family:Cantarell;-inkscape-font-specification:'Cantarell Light';text-align:center;letter-spacing:0px;text-anchor:middle;white-space:pre;shape-inside:url(#rect2);stroke-width:48.384">Trigger-happy cats with a knack for explosive weaponry.</text></g><rect style="fill:none;stroke-width:50.9288" id="fanfic-flowbox" width="79.856636" height="295.67957" x="662.11188" y="125.21731"/><g id="a-side-text" class="a-side-text"><text xml:space="preserve" transform="translate(0,71.733668)" id="homeworld-header" style="font-size:48px;font-family:Cantarell;-inkscape-font-specification:Cantarell;text-align:end;white-space:pre;shape-inside:url(#rect51);display:inline;fill-opacity:1;stroke-width:44.5833;stroke-linecap:round;stroke-linejoin:round" x="317.24796" y="0" class="a-side"><tspan x="129.45038" y="792.70812" id="tspan26"><tspan style="font-weight:bold" id="tspan25">homeworld</tspan></tspan></text><text xml:space="preserve" transform="translate(0,87.19)" id="blood-header" style="font-size:48px;font-family:Cantarell;-inkscape-font-specification:Cantarell;text-align:end;white-space:pre;shape-inside:url(#rect52);display:inline;fill-opacity:1;stroke-width:44.5833;stroke-linecap:round;stroke-linejoin:round" x="316.03183" y="0" class="a-side"><tspan x="134.01035" y="703.79015" id="tspan28"><tspan style="font-weight:bold" id="tspan27">blood color</tspan></tspan></text><text xml:space="preserve" transform="translate(0,56.722648)" id="diet-header" style="font-style:normal;font-variant:normal;font-weight:normal;font-stretch:normal;font-size:48px;font-family:Cantarell;-inkscape-font-specification:Cantarell;text-align:end;white-space:pre;shape-inside:url(#rect222);display:inline;fill-opacity:1;stroke:none;stroke-width:14.4;stroke-linecap:round;stroke-linejoin:miter;stroke-dasharray:none;stroke-opacity:1;text-anchor:end" x="229.80994" y="0" class="a-side"><tspan x="298.36252" y="881.18079" id="tspan30" style="text-anchor:end;text-align:end"><tspan style="font-weight:bold;text-align:end;text-anchor:end" id="tspan29">diet</tspan></tspan></text><text xml:space="preserve" style="font-size:37.3333px;font-family:Cantarell;-inkscape-font-specification:Cantarell;text-align:center;letter-spacing:0px;text-anchor:middle;stroke-width:48.384" x="408.56534" y="580.48254" id="fed-id" class="a-side"><tspan id="tspan3" x="408.56534" y="580.48254" style="font-size:37.3333px;text-align:center;text-anchor:middle"> </tspan></text><text xml:space="preserve" id="name" style="font-style:normal;font-variant:normal;font-weight:bold;font-stretch:normal;font-size:128px;-inkscape-font-specification:'Cantarell Bold';text-align:center;white-space:pre;shape-inside:url(#rect5-9);shape-padding:0;display:inline;stroke-width:44.5833;stroke-linecap:round;stroke-linejoin:round;font-family:Cantarell" x="112.85333" y="0" transform="translate(-139.5019,0)" class="a-side"><tspan x="386.28577" y="562.11943" id="tspan31" style="-inkscape-font-specification:'Cantarell Bold';font-family:Cantarell;font-weight:bold;font-style:normal;font-stretch:normal;font-variant:normal">qitiwi</tspan></text><text xml:space="preserve" style="font-style:normal;font-variant:normal;font-weight:normal;font-stretch:normal;font-size:48px;font-family:Cantarell;-inkscape-font-specification:Cantarell;text-align:start;letter-spacing:0px;text-anchor:start;stroke:none;stroke-width:48.384;stroke-opacity:1" x="430.75232" y="937.90344" id="diet" class="a-side"><tspan id="tspan6-9" x="430.75232" y="937.90344" style="font-style:normal;font-variant:normal;font-weight:normal;font-stretch:normal;font-size:48px;font-family:Cantarell;-inkscape-font-specification:Cantarell">carnivore</tspan></text><text xml:space="preserve" style="font-style:normal;font-variant:normal;font-weight:normal;font-stretch:normal;font-size:48px;font-family:Cantarell;-inkscape-font-specification:Cantarell;text-align:start;letter-spacing:0px;text-anchor:start;stroke:none;stroke-width:48.384;stroke-opacity:1" x="430.75232" y="864.44177" id="homeworld" class="a-side"><tspan id="tspan6-8" x="430.75232" y="864.44177" style="font-style:normal;font-variant:normal;font-weight:normal;font-stretch:normal;font-size:48px;font-family:Cantarell;-inkscape-font-specification:Cantarell">samaue</tspan></text><g id="stance-0"><text xml:space="preserve" style="font-size:53.3333px;-inkscape-font-specification:Cantarell;text-align:start;letter-spacing:0px;text-anchor:start;stroke:none;stroke-width:48.384;stroke-opacity:1;font-family:Cantarell;font-weight:normal;font-style:normal;font-stretch:normal;font-variant:normal" x="408.84534" y="654.44153" id="height-0" class="a-side"><tspan id="tspan6" x="408.84534" y="654.44153" style="font-weight:normal;font-size:53.3333px;text-align:center;text-anchor:middle;-inkscape-font-specification:Cantarell;font-family:Cantarell;font-style:normal;font-stretch:normal;font-variant:normal">4.7 ft / 1.4 m</tspan></text><text xml:space="preserve" style="font-size:42.6667px;-inkscape-font-specification:Cantarell;text-align:start;letter-spacing:0px;text-anchor:start;stroke:none;stroke-width:48.384;stroke-opacity:1;font-family:Cantarell;font-weight:normal;font-style:normal;font-stretch:normal;font-variant:normal" x="406.54135" y="713.74451" id="stance-name-0" class="a-side"><tspan id="tspan6-2" x="406.54135" y="713.74451" style="font-weight:normal;font-size:42.6667px;text-align:center;text-anchor:middle;-inkscape-font-specification:Cantarell;font-family:Cantarell;font-style:normal;font-stretch:normal;font-variant:normal">bipedal</tspan></text></g><g id="stance-1"><text xml:space="preserve" style="font-size:53.3333px;-inkscape-font-specification:Cantarell;text-align:start;letter-spacing:0px;text-anchor:start;stroke:none;stroke-width:48.384;stroke-opacity:1;font-family:Cantarell;font-weight:normal;font-style:normal;font-stretch:normal;font-variant:normal" x="387.56232" y="654.44153" id="height-1" class="a-side"><tspan id="tspan6-22" x="387.56232" y="654.44153" style="font-weight:normal;font-size:53.3333px;text-align:end;text-anchor:end;-inkscape-font-specification:Cantarell;font-family:Cantarell;font-style:normal;font-stretch:normal;font-variant:normal"> </tspan></text><text xml:space="preserve" style="font-size:42.6667px;-inkscape-font-specification:Cantarell;text-align:start;letter-spacing:0px;text-anchor:start;stroke:none;stroke-width:48.384;stroke-opacity:1;font-family:Cantarell;font-weight:normal;font-style:normal;font-stretch:normal;font-variant:normal" x="386.03702" y="713.74451" id="stance-name-1" class="a-side"><tspan id="tspan6-2-9" x="386.03702" y="713.74451" style="font-weight:normal;font-size:42.6667px;text-align:end;text-anchor:end;-inkscape-font-specification:Cantarell;font-family:Cantarell;font-style:normal;font-stretch:normal;font-variant:normal"> </tspan><tspan x="386.03702" y="767.07788" style="font-weight:normal;font-size:42.6667px;text-align:end;text-anchor:end;fill:#ffffff;-inkscape-font-specification:Cantarell;font-family:Cantarell;font-style:normal;font-stretch:normal;font-variant:normal" id="tspan32"/></text></g><g id="stance-2"><text xml:space="preserve" style="font-size:53.3333px;-inkscape-font-specification:Cantarell;text-align:start;letter-spacing:0px;text-anchor:start;stroke:none;stroke-width:48.384;stroke-opacity:1;font-family:Cantarell;font-weight:normal;font-style:normal;font-stretch:normal;font-variant:normal" x="428.82166" y="654.44153" id="height-2" class="a-side"><tspan id="tspan6-22-9" x="428.82166" y="654.44153" style="font-weight:normal;font-size:53.3333px;text-align:start;text-anchor:start;-inkscape-font-specification:Cantarell;font-family:Cantarell;font-style:normal;font-stretch:normal;font-variant:normal"> </tspan></text><text xml:space="preserve" style="font-size:42.6667px;-inkscape-font-specification:Cantarell;text-align:start;letter-spacing:0px;text-anchor:start;stroke:none;stroke-width:48.384;stroke-opacity:1;font-family:Cantarell;font-weight:normal;font-style:normal;font-stretch:normal;font-variant:normal" x="431.28564" y="713.74451" id="stance-name-2" class="a-side"><tspan id="tspan6-2-9-1" x="431.28564" y="713.74451" style="font-weight:normal;font-size:42.6667px;text-align:start;text-anchor:start;-inkscape-font-specification:Cantarell;font-family:Cantarell;font-style:normal;font-stretch:normal;font-variant:normal"> </tspan><tspan x="431.28564" y="767.07788" style="font-weight:normal;font-size:42.6667px;text-align:end;text-anchor:end;-inkscape-font-specification:Cantarell;font-family:Cantarell;font-style:normal;font-stretch:normal;font-variant:normal" id="tspan2-9"/></text></g><text xml:space="preserve" style="font-style:normal;font-variant:normal;font-weight:normal;font-stretch:normal;font-size:48px;font-family:Cantarell;-inkscape-font-specification:Cantarell;text-align:start;letter-spacing:0px;text-anchor:start;stroke:none;stroke-width:48.384;stroke-opacity:1" x="430.75232" y="790.98016" id="blood-color" class="a-side"><tspan id="tspan6-2-7" x="430.75232" y="790.98016" style="font-style:normal;font-variant:normal;font-weight:normal;font-stretch:normal;font-size:48px;font-family:Cantarell;-inkscape-font-specification:Cantarell">red</tspan></text><g id="cure-badge" transform="translate(0,0)" style="fill:#ffffff"><path id="cure-icon" style="stroke-width:0.635277;stroke-linecap:round;-inkscape-stroke:none" d="m 577.0133,1160.921 -5.04647,0.018 0.0185,5.0369 2.23939,2.2241 -1.3939,1.4003 3.69994,6.4083 2.75729,-2.7709 4.48361,4.4539 -3.96732,3.9865 3.69673,6.4027 5.33472,-5.3604 2.24502,2.2289 5.04647,-0.016 -0.0177,-5.0464 z m 6.48774,27.1594 -2.69466,2.7076 9.97973,9.9106 z m 7.28507,12.6182 1.81544,3.1443 -0.005,-1.3457 z m 1.81544,3.1443 0.0121,3.7 -5.04567,0.018 -7.01688,-6.9679 -3.94083,3.9681 1.74318,3.0199 -17.47756,30.2715 h -33.75635 l -3.24066,0.7098 -8.8243,8.8854 2.66335,4.6129 h 51.36078 l 25.68039,-44.4796 z m -77.54702,43.6045 -3.69753,-6.4043 -8.09443,8.1514 0.0177,5.0457 5.04567,-0.018 z m -3.69753,-6.4043 7.45849,-7.5099 1.23814,-5.8438 -11.6097,-20.1088 17.47677,-30.2708 h 29.75611 l 0.71461,-0.7194 -7.01608,-6.9679 -0.0168,-5.0465 5.04566,-0.018 11.79036,11.7093 6.63628,-6.6676 -3.75213,-6.499 H 517.7179 l -25.68039,44.4796 z m 44.31981,-63.7333 -8.61955,8.6806 -0.004,0.01 -0.004,0.01 -9.47709,9.5421 -0.004,0.01 -9.47789,9.5437 -0.005,0.01 -4.12872,4.1575 -3.90308,18.4299 5.86707,10.1628 h 1.19879 l 20.99765,-4.5992 28.49308,-28.6922 -3.69753,-6.4035 -29.85968,30.0669 -17.10822,3.1949 3.07606,-17.1307 1.61631,-1.6276 3.43578,3.4117 5.04647,-0.018 -0.0177,-5.0465 -3.43577,-3.4116 4.4539,-4.4845 3.43577,3.4117 5.04567,-0.018 -0.0177,-5.0457 -3.43497,-3.4125 4.4531,-4.4844 3.43577,3.4117 5.04647,-0.017 -0.0177,-5.0465 -3.43577,-3.4116 6.82417,-6.8716 4.48843,4.4571 -5.06735,-8.7761 z m 10.26637,8.7761 6.96951,12.0714 2.57502,-2.5927 z m 13.86113,-4.4081 -3.27358,-5.6695 -5.2729,5.2977 4.48442,4.4531 z" class="a-side"/><path style="font-weight:800;font-size:26.6667px;font-family:Cantarell;-inkscape-font-specification:'Cantarell Ultra-Bold';text-align:center;text-anchor:middle;white-space:pre;stroke-width:44.5833;stroke-linecap:round;stroke-linejoin:round" d="m 591.81185,1233.8328 c 1.6,0 2.96,-0.32 4.32,-1.0133 l -1.01333,-3.12 c -0.77334,0.32 -1.57334,0.4533 -2.32001,0.4533 -2.16,0 -3.38667,-1.1466 -3.38667,-3.2 0,-1.84 0.98667,-2.88 2.96001,-2.88 0.88,0 1.94667,0.1867 2.74667,0.4534 l 0.93333,-3.5734 c -1.06667,-0.4533 -2.53334,-0.72 -3.92,-0.72 -4.53334,0 -7.41335,2.72 -7.41335,7.04 0,4.1334 2.64001,6.56 7.09335,6.56 z m 10.72,-0.1066 c 1.60001,0 3.01334,-0.6667 4.05334,-1.8667 l 0.72,1.7067 h 3.33334 v -13.0667 h -4.61334 v 8.56 c -0.48,0.4267 -1.04,0.6667 -1.68,0.6667 -1.65334,0 -1.65334,-1.5734 -1.65334,-2.1334 0,0 0,-0.027 0,-0.027 v -7.0667 h -4.61334 v 8.1067 c 0,3.1466 1.81334,5.12 4.45334,5.12 z m 11.41334,-0.16 h 4.61334 v -7.68 c 0.69333,-0.7467 1.6,-1.1734 2.58667,-1.1734 0.58667,0 1.33334,0.1334 1.86667,0.32 l 1.04,-4.2133 c -0.53333,-0.2667 -1.33333,-0.4267 -2.13334,-0.4267 -1.54666,0 -3.01333,0.7734 -3.97333,2.1334 l -0.4,-2.0267 h -3.60001 z m 18.61336,0.2666 c 1.6,0 3.28,-0.2933 4.93334,-0.8533 l -1.01334,-3.12 c -1.09333,0.3733 -2.13333,0.56 -3.2,0.56 -1.94667,0 -3.12001,-0.64 -3.57334,-2.1067 h 7.84001 c 0.10667,-0.6666 0.18667,-1.3333 0.18667,-2.0266 0,-3.8134 -2.18667,-6.0534 -5.92001,-6.0534 -4.13334,0 -6.88001,2.72 -6.88001,6.8267 0,4.2133 2.88,6.7733 7.62668,6.7733 z m -3.01334,-8.0533 c 0.16,-1.44 0.82667,-2.16 1.94667,-2.16 1.2,0 1.89333,0.7733 1.89333,2.16 z m 15.46668,8.0533 c 1.70667,0 3.14667,-0.7733 4.10667,-2.08 l 0.90667,1.8134 h 2.82667 v -19.7067 h -4.42668 v 7.2267 c -0.77333,-0.56 -1.70666,-0.8534 -2.82667,-0.8534 -3.65333,0 -6.10667,2.7467 -6.10667,6.9067 0,4.0533 2.32,6.6933 5.52001,6.6933 z m 3.41333,-4.7466 c -0.45333,0.5866 -1.14666,0.9066 -1.94666,0.9066 -1.44001,0 -2.29334,-1.12 -2.29334,-3.04 0,-1.8133 0.82667,-2.88 2.24,-2.88 0.8,0 1.52,0.3467 2,0.9334 z" id="cure-text" class="a-side" transform="matrix(1.106712,0,0,1.106712,-140.73461,-83.713264)" aria-label="cured"/></g><g id="alter-badge" transform="translate(0,0)"><path id="alter-icon" style="clip-rule:evenodd;fill-rule:evenodd;stroke-width:0.0335836;stroke-linejoin:round;stroke-miterlimit:2" d="m 530.37305,1161.03 -1.97851,1.9785 h 4.25586 l 1.33984,2.3184 0.33984,-0.3399 v -3.957 z m 3.61719,4.2969 -1.32422,1.3242 4.9375,4.9375 z m 3.61328,6.2617 5.4043,9.3613 2.82031,2.8203 -0.75586,0.7559 2.89844,5.0176 5.45703,-5.4571 v -3.959 h -3.95703 l -1.66406,1.6641 z m 10.36719,17.9551 -8.30274,8.3027 -2.4375,0.7812 -0.96875,-0.1601 5.20899,9.0195 -17.25,29.8789 h -26.17578 l 0.0644,0.3828 -0.78125,2.4375 -11.78125,11.7813 h 47.10352 l 25.67773,-44.4805 z m -62.42383,62.4238 h -4.25586 l -1.33984,-2.3203 -0.3418,0.3418 v 3.957 h 3.95898 z m -5.5957,-2.3203 1.32226,-1.3223 -4.93554,-4.9355 z m -3.61328,-6.2578 -5.40625,-9.3633 -2.82032,-2.8203 0.75586,-0.7559 -2.89844,-5.0176 -5.45703,5.459 v 3.957 h 3.95703 l 1.66407,-1.664 z m -10.36915,-17.9571 8.30274,-8.3027 2.4375,-0.7832 0.96875,0.1602 -5.20703,-9.0196 17.25,-29.875 h 26.17383 l -0.0645,-0.3847 0.78125,-2.4375 11.78321,-11.7813 h -47.10352 l -25.68359,44.4785 z m 49.92579,-47.8203 2.01367,12.1348 -12.52149,-2.0781 -2.4375,0.7832 -1.25586,1.2558 -12.5039,12.5039 -1.25586,1.2559 -0.7832,2.4375 2.07812,12.5195 -11.55078,-1.9179 3.625,6.2773 8.89453,1.4766 2.1543,12.9863 -0.11914,0.1191 h 5.8125 l -2.01367,-12.1386 12.52148,2.0781 2.4375,-0.7813 1.25586,-1.2558 12.50391,-12.5039 1.25585,-1.2559 0.78125,-2.4375 -2.07812,-12.5215 11.55273,1.918 -3.62304,-6.2754 -8.89649,-1.4766 -2.15625,-12.9863 0.11719,-0.1172 z m 5.80859,0 h 2.51758 l 8.41797,14.5801 4.08984,0.6777 1.90039,-1.9004 -15.14062,-15.1406 z m -29.4707,59.7539 h -2.51172 l -8.41797,-14.582 -4.0918,-0.6797 -1.90039,1.9024 15.14063,15.1406 z m -23.36524,-6.916 2.06446,3.5762 12.32031,12.3203 5.2207,-5.2188 -15.14062,-15.1425 z m 76.20508,-45.9238 -2.06445,-3.5762 -12.32031,-12.3203 -5.22071,5.2207 15.14258,15.1406 z m -39.18164,8.9004 12.98633,2.1543 2.1543,12.9883 -0.23829,0.2363 -1.66406,1.664 -15.14062,-15.1406 1.66406,-1.664 z m -3.88086,3.8808 15.13867,15.1407 -5.21875,5.2187 -15.14062,-15.1387 z m -7.19922,7.1993 15.14063,15.1386 -1.66407,1.6641 -0.23632,0.2383 -12.98828,-2.1543 -2.1543,-12.9864 0.23828,-0.2363 z" class="a-side"/><path style="font-weight:800;font-size:26.6667px;font-family:Cantarell;-inkscape-font-specification:'Cantarell Ultra-Bold';text-align:center;white-space:pre;stroke-width:44.5833;stroke-linecap:round;stroke-linejoin:round" d="m 583.61184,1233.5662 h 3.33334 v -7.2534 c 0,-3.9466 -2.18667,-6.08 -6.45334,-6.08 -2.02667,0 -4.16001,0.48 -5.81334,1.28 l 1.06667,3.12 c 1.36,-0.48 2.61333,-0.72 3.76,-0.72 1.81334,0 2.88001,0.6134 2.93334,1.76 -5.44001,0.1334 -7.92001,1.44 -7.92001,4.2134 0,2.3733 1.78667,3.9466 4.61334,3.9466 1.68,0 3.01333,-0.56 4,-1.6533 z m -1.17333,-3.7867 c -0.48,0.4 -1.06667,0.6133 -1.70667,0.6133 -0.93333,0 -1.57334,-0.48 -1.57334,-1.1733 0,-0.8267 0.90667,-1.1733 3.28001,-1.2533 z m 11.83999,4 c 0.98667,0 2.02667,-0.1867 2.90667,-0.5067 l -0.90666,-3.04 c -0.26667,0.08 -0.56,0.1067 -0.72001,0.1067 -0.69333,0 -1.06666,-0.4267 -1.06666,-1.2533 v -15.2267 h -4.53334 v 15.7867 c 0,2.64 1.57333,4.1333 4.32,4.1333 z m 10.34667,0 c 0.90666,0 1.92,-0.1333 2.96,-0.4267 l -0.88,-3.2533 c -0.34667,0.1333 -0.72,0.1867 -1.06667,0.1867 -1.12,0 -1.78667,-0.5867 -1.78667,-1.5467 v -4.64 h 3.01334 v -3.6 h -3.01334 v -3.76 h -4.53334 v 3.76 h -1.86667 v 3.6 h 1.86667 v 4.7733 c 0,3.0934 1.92001,4.9067 5.30668,4.9067 z m 11.81336,0.053 c 1.6,0 3.28001,-0.2933 4.93334,-0.8533 l -1.01333,-3.12 c -1.09334,0.3733 -2.13334,0.56 -3.20001,0.56 -1.94667,0 -3.12,-0.64 -3.57333,-2.1067 h 7.84001 c 0.10666,-0.6666 0.18666,-1.3333 0.18666,-2.0266 0,-3.8134 -2.18667,-6.0534 -5.92,-6.0534 -4.13334,0 -6.88001,2.72 -6.88001,6.8267 0,4.2133 2.88,6.7733 7.62667,6.7733 z m -3.01333,-8.0533 c 0.16,-1.44 0.82666,-2.16 1.94666,-2.16 1.20001,0 1.89334,0.7733 1.89334,2.16 z m 10.72,7.7867 h 4.61333 v -7.68 c 0.69334,-0.7467 1.60001,-1.1734 2.58667,-1.1734 0.58667,0 1.33334,0.1334 1.86667,0.32 l 1.04001,-4.2133 c -0.53334,-0.2667 -1.33334,-0.4267 -2.13334,-0.4267 -1.54667,0 -3.01334,0.7734 -3.97334,2.1334 l -0.4,-2.0267 h -3.6 z m 18.61336,0.2666 c 1.6,0 3.28,-0.2933 4.93333,-0.8533 l -1.01333,-3.12 c -1.09333,0.3733 -2.13334,0.56 -3.2,0.56 -1.94667,0 -3.12001,-0.64 -3.57334,-2.1067 h 7.84001 c 0.10666,-0.6666 0.18667,-1.3333 0.18667,-2.0266 0,-3.8134 -2.18667,-6.0534 -5.92001,-6.0534 -4.13334,0 -6.88001,2.72 -6.88001,6.8267 0,4.2133 2.88,6.7733 7.62668,6.7733 z m -3.01334,-8.0533 c 0.16,-1.44 0.82667,-2.16 1.94667,-2.16 1.2,0 1.89333,0.7733 1.89333,2.16 z m 15.46667,8.0533 c 1.70667,0 3.14667,-0.7733 4.10667,-2.08 l 0.90667,1.8134 h 2.82667 v -19.7067 h -4.42667 v 7.2267 c -0.77334,-0.56 -1.70667,-0.8534 -2.82667,-0.8534 -3.65334,0 -6.10668,2.7467 -6.10668,6.9067 0,4.0533 2.32001,6.6933 5.52001,6.6933 z m 3.41334,-4.7466 c -0.45334,0.5866 -1.14667,0.9066 -1.94667,0.9066 -1.44,0 -2.29334,-1.12 -2.29334,-3.04 0,-1.8133 0.82667,-2.88 2.24001,-2.88 0.8,0 1.52,0.3467 2,0.9334 z" id="alter-text" class="a-side" transform="matrix(1.106712,0,0,1.106712,-177.61313,-83.805867)" aria-label="altered"/></g><g id="fanfic-data"><text xml:space="preserve" transform="translate(637.96066,32.582404)" id="fanfic-header-from" style="font-weight:bold;font-size:18.6667px;font-family:Cantarell;-inkscape-font-specification:'Cantarell Bold';writing-mode:vertical-lr;white-space:pre;shape-inside:url(#rect21-6);display:inline;stroke-width:9.6" class="a-side"><tspan x="47.565125" y="35.898438" id="tspan38">from</tspan></text><text xml:space="preserve" id="fanfic-title" style="font-weight:bold;font-size:32px;font-family:Cantarell;-inkscape-font-specification:'Cantarell Bold';writing-mode:tb-rl;direction:ltr;white-space:pre;shape-inside:url(#fanfic-flowbox);display:inline;stroke-width:9.6" x="721.81659" y="124.96131" class="a-side">Off the Beaten Path</text><text xml:space="preserve" transform="translate(568.58027,32.582404)" id="fanfic-author" style="font-weight:bold;font-size:21.3333px;font-family:Cantarell;-inkscape-font-specification:'Cantarell Bold';writing-mode:tb-rl;direction:ltr;white-space:pre;shape-inside:url(#rect56);display:inline;stroke-width:9.6" class="a-side"><tspan x="79.037781" y="92.378906" id="tspan40"><tspan style="font-weight:normal" id="tspan39">u/starkeeper0</tspan></tspan></text></g></g><g id="portrait" clip-path="url(#clipPath5-4-7)" transform="translate(-3.5661015,-167.77849)" style="fill:#ffffff"><g id="g4" style="fill:#ffffff"><circle style="fill:#ffffff;stroke-width:53.444;stroke-linecap:round;stroke-linejoin:round" id="path2" cx="-406.40869" cy="411.5657" r="179.8116" transform="rotate(-90)"/></g><image width="300" height="300" preserveAspectRatio="none" style="fill:#ffffff;image-rendering:optimizeQuality" xlink:href="placeholder-kisser.png" id="kisser-image" x="261.5657" y="286.40869" href="./assets/kissers/qitiwi-kisser.png"/></g></g></svg>